<svg xmlns="http://www.w3.org/2000/svg" width="125" height="125" viewBox="0 0 125 125">
  <g id="Group_73" data-name="Group 73" transform="translate(-35 -218)">
    <rect id="Rectangle_20" data-name="Rectangle 20" width="125" height="125" rx="10" transform="translate(35 218)" fill="#6bccb8"/>
    <path id="Icon_awesome-dog" data-name="Icon awesome-dog" d="M74.4,11.85H64.8L63.726,9.7A4.8,4.8,0,0,0,59.433,7.05H51.39L47.3,2.958a2.4,2.4,0,0,0-4.1,1.7V27.13l19.2,6.857V28.65h4.8a9.6,9.6,0,0,0,9.6-9.6v-4.8A2.4,2.4,0,0,0,74.4,11.85Zm-16.8,7.2a2.4,2.4,0,1,1,2.4-2.4A2.4,2.4,0,0,1,57.6,19.05Zm-43.2,12a4.806,4.806,0,0,1-4.8-4.8,4.8,4.8,0,1,0-9.6,0A14.375,14.375,0,0,0,9.6,39.765V71.85a2.4,2.4,0,0,0,2.4,2.4h9.6a2.4,2.4,0,0,0,2.4-2.4V55.05H48v16.8a2.4,2.4,0,0,0,2.4,2.4H60a2.4,2.4,0,0,0,2.4-2.4V39.082L39.908,31.05Z" transform="translate(59 229.75)" fill="#fff"/>
    <text id="Dog" transform="translate(79 329)" fill="#fff" font-size="18" font-family="ArialMT, Arial"><tspan x="0" y="0">Dog</tspan></text>
  </g>
</svg>
