<svg xmlns="http://www.w3.org/2000/svg" width="125" height="125" viewBox="0 0 125 125">
  <g id="Group_69" data-name="Group 69" transform="translate(-185 -502)">
    <rect id="Rectangle_25" data-name="Rectangle 25" width="125" height="125" rx="10" transform="translate(185 502)" fill="#8b5728"/>
    <path id="FontAwsome_horse_" data-name="FontAwsome (horse)" d="M80.989,10.772a4.467,4.467,0,0,0-1.207-3.066c-.532-.567-1.207-1.282-1.925-2.039a6.67,6.67,0,0,0,3.119-4.312A1.138,1.138,0,0,0,79.861,0H62.989a18,18,0,0,0-18,18H22.5a13.411,13.411,0,0,0-10.125,4.656V22.5A12.388,12.388,0,0,0,0,34.875V42.75A2.249,2.249,0,0,0,2.25,45H4.5a2.249,2.249,0,0,0,2.25-2.25V34.875A5.527,5.527,0,0,1,9.11,30.42c-.03.363-.11.71-.11,1.08a13.422,13.422,0,0,0,4.295,9.827L9.678,50.974a8.992,8.992,0,0,0-.3,5.342L12.869,70.3A2.247,2.247,0,0,0,15.05,72h9.276a2.249,2.249,0,0,0,2.182-2.8l-3.7-14.8L26.16,45.46,45,48.6V69.75A2.249,2.249,0,0,0,47.25,72h9a2.249,2.249,0,0,0,2.25-2.25v-25a15.686,15.686,0,0,0,4.5-11c0-.031-.01-.059-.011-.09V19.25l2.25,1,2.658,5.3a4.5,4.5,0,0,0,5.694,2.161l4.577-1.831A4.5,4.5,0,0,0,81,21.7l-.008-10.928Zm-9,2.728a2.25,2.25,0,1,1,2.25-2.25A2.249,2.249,0,0,1,71.989,13.5Z" transform="translate(208 516)" fill="#fff"/>
    <text id="Horse" transform="translate(223 613)" fill="#fff" font-size="18" font-family="ArialMT, Arial"><tspan x="0" y="0">Horse</tspan></text>
  </g>
</svg>
