<svg xmlns="http://www.w3.org/2000/svg" width="125" height="125" viewBox="0 0 125 125">
  <g id="Group_67" data-name="Group 67" transform="translate(-35 -657)">
    <rect id="Rectangle_26" data-name="Rectangle 26" width="125" height="125" rx="10" transform="translate(35 657)" fill="#eb7dbc"/>
    <path id="FontAwsome_dragon_" data-name="FontAwsome (dragon)" d="M2.576,35.969,27,31.494l-12.836,9.66a2.25,2.25,0,0,0,1.59,3.84H47.071A34.783,34.783,0,0,1,45,33.269V27.325L28.163,15.006a9,9,0,0,0-10.837.645L.817,32.012A2.251,2.251,0,0,0,2.576,35.969Zm78.31,4.8L66.731,33.69A6.749,6.749,0,0,1,63,27.654v-5.16h9l3.95,3.182a4.5,4.5,0,0,0,3.182,1.318h4.355a4.5,4.5,0,0,0,4.025-2.487l2.012-4.025A4.5,4.5,0,0,0,89.1,15.77L78.619,1.794A4.5,4.5,0,0,0,75.019,0H41.628a1.12,1.12,0,0,0-.8,1.914L49.5,8.994l-8.378,3.493a1.125,1.125,0,0,0,0,2.012L49.5,17.994V33.269A30.321,30.321,0,0,0,63,58.494c-27.5.958-48.454,5.767-61.045,8.565A2.5,2.5,0,0,0,2.5,72H72.681c8.9,0,16.82-6.688,17.3-15.576a16.411,16.411,0,0,0-9.09-15.66ZM68.791,9.316l6.42,1.6a3.329,3.329,0,0,1-3.393,2.568,3.28,3.28,0,0,1-3.026-4.172Z" transform="translate(52 671)" fill="#fff"/>
    <text id="Lizard" transform="translate(71 768)" fill="#fff" font-size="18" font-family="ArialMT, Arial"><tspan x="0" y="0">Lizard</tspan></text>
  </g>
</svg>
