<svg xmlns="http://www.w3.org/2000/svg" width="125" height="125" viewBox="0 0 125 125">
  <g id="Group_72" data-name="Group 72" transform="translate(-35 -360)">
    <rect id="Rectangle_22" data-name="Rectangle 22" width="125" height="125" rx="10" transform="translate(35 360)" fill="#9072cc"/>
    <path id="rabbit" d="M64.7,76.5,53.78,57.54c0-6.92-4.28-11.36-9.48-11.36a9.436,9.436,0,0,0-8.32,4.96,9.048,9.048,0,0,1,4.52-1.16,9.48,9.48,0,0,1,0,18.96H53.7V76.5H19.66a3.691,3.691,0,0,1-2.68-1.12,3.79,3.79,0,0,1,0-5.36h0l2-2a14.806,14.806,0,0,1-3.6-2.48,5.686,5.686,0,1,1-5.2-8l1.88.32V49.98A18.923,18.923,0,0,1,31.02,31.02h.08c8.48.04,15.08,3.36,15.08-1.88a11.05,11.05,0,0,1,2.16-7.28,23.1,23.1,0,0,0-9.72-2.2,3.805,3.805,0,0,1-1.12-7.44l-2.68-.16a3.78,3.78,0,1,1,0-7.56h3.8A22.844,22.844,0,0,1,58.34,15.9l1.12-.04A13.263,13.263,0,0,1,67.1,18.3l1.8,1.52c8.68,7.8,7.6,13.08,7.6,13.12a9.4,9.4,0,0,1-9.4,9.32l-1.96-.2v.32a15.279,15.279,0,0,1-4.92,11.2L73.46,76.5H64.7m.44-53.04a3.78,3.78,0,1,0,3.8,3.76A3.764,3.764,0,0,0,65.14,23.46Z" transform="translate(56.5 369.5)" fill="#fff"/>
    <text id="Rabbit-2" data-name="Rabbit" transform="translate(69 471)" fill="#fff" font-size="18" font-family="ArialMT, Arial"><tspan x="0" y="0">Rabbit</tspan></text>
  </g>
</svg>
