<svg xmlns="http://www.w3.org/2000/svg" width="125" height="125" viewBox="0 0 125 125">
  <g id="Group_66" data-name="Group 66" transform="translate(-185 -657)">
    <rect id="Rectangle_27" data-name="Rectangle 27" width="125" height="125" rx="10" transform="translate(185 657)" fill="#f45269"/>
    <path id="turtle" d="M27.05,17.749a26.684,26.684,0,0,1,5.687-2.49V10.5a7.435,7.435,0,1,1,14.868,0v4.758a28.694,28.694,0,0,1,5.687,2.49l-5.947,7.88H33l-5.947-7.88M66.191,40.237a26,26,0,0,1-.52,5.2l-9.4-2.9-4.423-13.6,5.947-7.843a27.548,27.548,0,0,1,4.237,5.018,15.311,15.311,0,0,1,8.289,1.45,13.28,13.28,0,0,1,7.025,10L66.191,38.9v1.338m-52.039,0v-1.3L3,37.561a13.28,13.28,0,0,1,7.025-10,13.16,13.16,0,0,1,8.14-1.227,26.108,26.108,0,0,1,4.312-5.167L28.5,28.9,24.076,42.542l-9.4,2.9a26,26,0,0,1-.52-5.2M33.629,31.2H46.713l4.052,12.489L40.171,51.389,29.577,43.694,33.629,31.2M25.786,47.857l11.6,8.4v9.85A24.845,24.845,0,0,1,31.324,64.7L26.752,74.955a13.034,13.034,0,0,1-6.319-17.768,25.409,25.409,0,0,1-4.089-6.468l9.441-2.862m28.77,0L64,50.72a25.41,25.41,0,0,1-4.089,6.468A12.95,12.95,0,0,1,53.59,74.955L49.055,64.7a25.764,25.764,0,0,1-6.1,1.561v-10Z" transform="translate(208 668.045)" fill="#fff"/>
    <text id="Turtle-2" data-name="Turtle" transform="translate(224 768)" fill="#fff" font-size="18" font-family="ArialMT, Arial"><tspan x="0" y="0">Turtle</tspan></text>
  </g>
</svg>
